<svg width="45" height="46" viewBox="0 0 45 46" fill="none" xmlns="http://www.w3.org/2000/svg">
<g clip-path="url(#clip0_117_17)">
<path d="M27.1508 21.7193C28.6509 21.1346 30.1144 20.3508 31.1824 19.1642C31.6664 18.6264 32.0702 17.9897 32.1718 17.2856C32.302 16.3821 31.9185 15.4829 31.3877 14.7421C30.2236 13.1176 28.3354 12.0571 26.3315 11.6724C24.3275 11.2876 22.219 11.5433 20.2706 12.1917C17.9682 12.9579 15.8138 14.3087 14.394 16.2419C12.9222 18.2461 11.3681 22.9078 14.7573 23.8479C15.5246 24.0607 16.3417 24.0379 17.142 23.9869C18.9059 23.8744 20.6633 23.6329 22.3945 23.2657C24.0726 22.9099 25.5652 22.3373 27.1508 21.7193Z" fill="#F85F4C"/>
<path d="M24.4394 22.2949C24.0735 21.8812 23.1978 21.5953 22.6161 21.7669C22.02 21.9427 21.7914 22.7752 21.8366 23.2841C21.886 23.84 22.3395 24.5859 22.9312 24.77C23.5026 24.9478 24.2567 24.4967 24.5517 24.0431C24.9034 23.5025 24.8561 22.7658 24.4394 22.2949Z" fill="white"/>
<path d="M29.7304 18.1786C29.6856 18.1802 29.6536 18.1674 29.6026 17.8949C29.5743 17.7593 29.541 17.5576 29.4554 17.2698C29.368 16.984 29.2365 16.6044 28.955 16.1605C28.8011 15.9178 28.5761 15.6219 28.2898 15.3498C28.0028 15.0791 27.6602 14.8303 27.3196 14.6488C26.6401 14.2743 26.0016 14.1643 26.0109 14.1179C26.0116 14.0804 26.6762 14.1124 27.4169 14.4535C27.7866 14.6182 28.1639 14.8621 28.4816 15.1397C28.799 15.4189 29.0498 15.7334 29.2154 15.9948C29.5187 16.4732 29.6523 16.886 29.7301 17.1963C29.8061 17.509 29.8184 17.7275 29.8197 17.8734C29.8164 18.1663 29.7707 18.1773 29.7304 18.1786Z" fill="white"/>
<path d="M29.602 19.4088C29.5237 19.3677 29.4764 19.3345 29.5035 19.231C29.5237 19.1786 29.5713 19.0357 29.6448 19.0016C29.6848 18.9885 29.738 19.0247 29.7722 19.0897C29.8073 19.1534 29.8174 19.2413 29.8056 19.2937C29.7537 19.4859 29.6715 19.4469 29.602 19.4088Z" fill="white"/>
<path d="M15.2696 19.0207C15.2996 19.0508 15.3226 19.0829 15.2693 19.1802C15.2244 19.2822 15.0813 19.4413 14.9325 19.8199C14.849 20.0257 14.767 20.3707 14.773 20.6726C14.7733 20.9741 14.8501 21.2186 14.8091 21.2374C14.7744 21.2563 14.6168 21.0296 14.5558 20.6945C14.489 20.3623 14.5463 19.9498 14.6436 19.7112C14.8168 19.2712 15.0144 19.1069 15.1073 19.0339C15.2103 18.9652 15.2395 18.9906 15.2696 19.0207Z" fill="white"/>
<path d="M32.576 17.2148L32.5753 17.2124C32.4529 16.6888 32.1931 16.1889 31.8658 15.7346C31.404 15.1108 30.813 14.5398 30.1149 14.0786C29.7123 13.8067 29.2757 13.5708 28.8135 13.3713C28.8127 13.371 28.8119 13.3707 28.8111 13.3704C28.7992 13.2835 28.7804 13.1777 28.7503 13.0398C28.6817 12.7328 28.5655 12.2824 28.3513 11.6252C28.1291 10.9714 27.825 10.0984 27.2257 9.01969C27.0537 8.72614 26.8638 8.39846 26.597 8.05162C26.374 7.7661 26.0767 7.45866 25.6711 7.26536C25.6496 7.21759 25.6218 7.16496 25.5768 7.10138C25.4542 6.92978 25.1936 6.67524 24.7089 6.5547C24.2294 6.43512 23.571 6.47246 22.8166 6.7539C22.4022 6.90681 21.8969 7.16611 21.4301 7.54519C21.1979 7.73374 20.9715 7.95693 20.7952 8.2212C20.6264 8.4756 20.4962 8.74735 20.4077 9.01502C20.2293 9.55241 20.2277 10.0653 20.2962 10.4138C20.3139 10.5092 20.3354 10.5916 20.3581 10.6625C19.8799 10.7342 19.3603 10.9017 18.8731 11.1729C18.5086 11.3722 18.1576 11.6284 17.8672 11.9409C17.5924 12.2306 17.3758 12.5587 17.2088 12.886C17.2084 12.8867 17.2082 12.8873 17.2078 12.8881C17.141 12.8073 17.0466 12.7021 16.9194 12.5751C16.6301 12.2894 16.1776 11.8902 15.5043 11.5516C14.8385 11.2162 13.9172 10.9586 12.8821 11.087C12.3694 11.1499 11.8281 11.3115 11.3407 11.6116C10.8485 11.9027 10.4262 12.3305 10.0957 12.816C9.44053 13.8009 9.15078 14.994 9.03508 16.1596C8.90473 17.3286 8.90304 18.5137 8.99174 19.6525C9.1698 21.9339 9.68715 24.0174 10.1149 25.6132C10.9285 28.5181 11.5756 30.695 12.189 32.318C12.8021 33.9371 13.3652 34.9785 13.7834 35.6543C14.1746 36.2853 14.4362 36.6026 14.5924 36.77C14.7001 37.049 14.8071 37.3257 14.914 37.6024C15.1706 38.2746 15.4444 38.9681 15.8473 39.6089C16.2476 40.2504 16.8029 40.8421 17.5221 41.2025C18.2407 41.5708 19.0681 41.6893 19.8573 41.6554C20.6531 41.6248 21.4251 41.4535 22.1657 41.2306C22.5411 41.1177 22.8967 40.9841 23.25 40.8617C23.6052 40.7361 23.961 40.6131 24.3136 40.4882C27.1338 39.4977 29.8799 38.568 32.4683 37.8232C33.7478 37.4483 35.054 37.1661 36.2052 36.5566C36.7764 36.2558 37.3134 35.8647 37.6918 35.3556C38.0839 34.8559 38.2789 34.2492 38.3273 33.6925C38.3767 33.1777 38.3246 32.6867 38.2435 32.2198C38.1649 31.7522 38.0553 31.312 37.9555 30.8768C37.7551 30.004 37.542 29.1639 37.3263 28.3536C36.8864 26.7326 36.4144 25.2316 35.9025 23.8527C34.9073 21.1946 33.7686 18.9941 32.576 17.2148ZM23.7206 12.6473C23.6275 12.4289 23.488 12.1553 23.2584 11.8285C23.1659 11.6995 23.0553 11.5653 22.9169 11.431L22.9165 11.4296C22.902 11.269 22.8713 11.0286 22.8387 10.724C22.8113 10.4435 22.7888 10.1095 22.8189 9.7473C22.8534 9.38977 22.9414 8.98909 23.1482 8.64645C23.2209 8.52731 23.3113 8.41486 23.4087 8.30702C23.4848 8.51616 23.6556 8.86964 23.8363 9.28034C24.1162 9.90194 24.3972 10.6536 24.5629 11.1353C24.8247 11.894 24.9462 12.3407 25.0453 12.5941L25.0453 12.5941C24.6021 12.5868 24.1608 12.6053 23.7206 12.6473ZM26.683 9.31056C27.2542 10.3382 27.5674 11.181 27.8142 11.812C28.0538 12.4472 28.2123 12.8811 28.3337 13.1699C28.3357 13.1747 28.3372 13.1778 28.3391 13.1824C27.4535 12.8597 26.4941 12.666 25.519 12.6111L25.5183 12.6087C25.5182 12.6086 25.5181 12.6087 25.518 12.6087C25.5155 12.3527 25.4632 11.8523 25.1462 10.9339C24.9732 10.4301 24.6124 9.66869 24.2231 9.08024C23.9524 8.66302 23.6808 8.33432 23.5183 8.1897C23.68 8.03341 23.8641 7.89647 24.0654 7.79441C24.4456 7.59907 24.8777 7.54476 25.234 7.68154C25.5951 7.80998 25.8813 8.09627 26.108 8.40106C26.3346 8.70717 26.5221 9.03516 26.683 9.31056ZM20.8155 9.14912C20.9177 8.92218 21.0517 8.69704 21.2129 8.49026C21.3671 8.29319 21.5668 8.11742 21.7792 7.96323C22.204 7.65381 22.6642 7.43462 23.0258 7.30186C23.6895 7.05479 24.2184 7.02256 24.5707 7.08415C24.5922 7.08796 24.6113 7.09285 24.6317 7.09724C24.6222 7.09847 24.6125 7.09835 24.6032 7.09982C24.3241 7.13955 24.0604 7.23783 23.8259 7.36978C23.3566 7.63612 22.9945 8.02789 22.766 8.45794C22.5378 8.90022 22.4811 9.34738 22.4754 9.74263C22.4768 10.1388 22.5374 10.4835 22.6022 10.7657C22.651 10.9686 22.6994 11.1397 22.7433 11.2768C22.7428 11.2765 22.7425 11.276 22.742 11.2757C22.7413 11.2732 22.7413 11.2732 22.7406 11.2708C22.6616 11.1985 22.5698 11.13 22.4704 11.0637C22.291 10.9411 22.076 10.8395 21.8322 10.7539C21.5869 10.6819 21.3176 10.6326 21.031 10.62C20.8742 10.6149 20.7092 10.62 20.5342 10.6386C20.5341 10.6386 20.5339 10.6386 20.5338 10.6387C20.5324 10.5661 20.5317 10.4836 20.5349 10.39C20.5418 10.0601 20.6098 9.60401 20.8155 9.14912ZM17.5655 13.1236C17.7445 12.8193 17.9683 12.5259 18.2336 12.2706C18.4963 12.0161 18.8109 11.8073 19.1363 11.6455C19.7881 11.3163 20.4818 11.1912 20.9916 11.2084C21.9402 11.2368 22.4643 11.7584 22.7974 12.1557C22.9585 12.3598 23.0838 12.5452 23.1854 12.7058C22.0454 12.8614 20.9292 13.1578 19.8784 13.5566C18.765 13.9787 17.7155 14.5273 16.7972 15.1753C16.8267 15.0747 16.8621 14.9564 16.8985 14.8221C17.0317 14.3676 17.2106 13.7339 17.5655 13.1236ZM13.2299 23.9217C13.1571 24.8095 13.1 25.7324 13.073 26.6834C12.9978 26.3313 12.873 25.8312 12.7095 25.1037C12.5362 24.3346 12.3195 23.313 12.1219 21.9447C12.0126 21.1953 11.8923 20.2275 11.8154 19.1925C11.7365 18.1579 11.7011 17.057 11.7077 16.0491C11.7079 15.0379 11.7373 14.1313 11.9521 13.5149C12.1057 13.0346 12.3401 12.7568 12.4227 12.6378C12.5981 12.6224 12.7862 12.6144 12.9914 12.6212C13.3509 12.6339 13.8073 12.6968 14.2734 12.8624C14.7398 13.0202 15.2019 13.2723 15.5784 13.5631C16.157 13.9966 16.5018 14.5138 16.6722 14.7278C16.6722 14.7282 16.6721 14.7286 16.672 14.729C16.6692 14.7482 16.6683 14.7643 16.6655 14.7836C16.6379 14.997 16.6251 15.1746 16.6208 15.3049L16.6182 15.3057C16.2444 15.5789 15.8929 15.872 15.5701 16.178C14.9888 16.7242 14.4883 17.3104 14.0994 17.9278C13.7117 18.5396 13.4196 19.1557 13.1978 19.7463C12.808 20.8252 12.5916 21.9281 12.8201 22.9667C12.8934 23.3093 13.034 23.6353 13.2299 23.9217ZM11.5476 11.924C11.973 11.6454 12.453 11.4857 12.9221 11.4128C13.8697 11.2646 14.7418 11.468 15.3943 11.758C16.0538 12.0499 16.5213 12.4094 16.8331 12.6624C16.9811 12.7839 17.094 12.882 17.1748 12.951C17.1748 12.951 17.1748 12.951 17.1748 12.951C16.9127 13.4979 16.7851 14.0299 16.7138 14.4588C16.7138 14.4591 16.7138 14.4594 16.7137 14.4597C16.695 14.4116 16.6742 14.361 16.6487 14.3058C16.5088 14.005 16.2522 13.6103 15.8745 13.2506C15.5004 12.8887 15.0096 12.5657 14.4949 12.3574C13.9854 12.1416 13.4463 12.0462 13.032 12.0328C12.2692 12.0086 11.7055 12.1614 11.303 12.2949C11.1528 12.3479 11.0296 12.3995 10.9182 12.4497C11.1089 12.2475 11.3181 12.0681 11.5476 11.924ZM12.724 32.1252C12.1519 30.526 11.5192 28.3391 10.7105 25.4512C10.2857 23.8674 9.76061 21.8181 9.55654 19.5938C9.45466 18.4832 9.43771 17.331 9.54265 16.1937C9.62923 15.0953 9.87646 14.0049 10.4164 13.1103C10.4761 13.1042 10.555 13.0872 10.6679 13.0523C10.8413 13.0006 11.091 12.9123 11.4627 12.811C11.6938 12.7527 11.9749 12.6853 12.3125 12.6476C12.2778 12.6744 12.2396 12.7061 12.1957 12.7489C12.0515 12.8858 11.8723 13.1188 11.7282 13.4395C11.4249 14.0825 11.3288 15.0368 11.273 16.0472C11.2104 17.0667 11.2009 18.1854 11.2497 19.2385C11.2964 20.2919 11.4015 21.2788 11.5126 22.0408C11.7136 23.4321 11.9511 24.4678 12.1576 25.2411C12.3637 26.0147 12.5397 26.5269 12.6679 26.8694C12.8887 27.4236 12.9839 27.5286 13.0555 27.5344C13.0407 28.7974 13.0932 30.1016 13.2415 31.431C13.3224 32.1193 13.4298 32.8131 13.5714 33.5104C13.6844 34.0588 13.8353 34.6042 14.0084 35.1407C13.664 34.4627 13.2189 33.5071 12.724 32.1252ZM13.0731 26.6837L13.0744 26.6883C13.0744 26.6888 13.0744 26.6893 13.0744 26.6897C13.074 26.6877 13.0736 26.6857 13.0731 26.6837ZM32.3079 37.2736C29.7031 38.0285 26.9476 38.9741 24.129 39.9799C23.7771 40.1072 23.4245 40.232 23.0701 40.36C22.7124 40.4862 22.3619 40.6184 22.0095 40.7247C21.6425 40.8378 21.2713 40.9364 20.8949 41.0074C20.8949 41.0074 20.8949 41.0074 20.8949 41.0074C20.4965 40.9589 20.0379 40.8302 19.5769 40.5689C18.8224 40.1592 18.1806 39.3341 17.7777 38.2962C17.5657 37.7775 17.4189 37.2117 17.2399 36.611C17.0623 36.0173 16.87 35.4105 16.7507 34.7804C16.6843 34.466 16.6538 34.1459 16.6356 33.8246C16.6381 33.505 16.647 33.1803 16.733 32.8713C16.878 32.2418 17.2796 31.7064 17.8225 31.2859C18.3653 30.8634 19.008 30.5472 19.6641 30.2534C20.324 29.9638 20.9856 29.6898 21.652 29.4522C24.3123 28.4845 26.9334 27.9182 28.9721 27.5374C29.9039 27.3661 30.7826 27.2246 31.6091 27.102C31.8138 27.0734 32.0238 27.0393 32.2148 27.0164C32.3968 26.9954 32.5737 26.9864 32.7337 27.0064C32.8969 27.0203 33.0361 27.0704 33.1622 27.1338C33.2808 27.2095 33.3937 27.2926 33.4805 27.4146C33.6653 27.6433 33.7868 27.9457 33.9038 28.2387C34.0183 28.5343 34.1282 28.8365 34.2477 29.1197C34.4792 29.6672 34.6553 30.1816 34.7865 30.6698C34.918 31.158 35.0143 31.6195 35.1071 32.0456C35.2006 32.474 35.2848 32.8545 35.3415 33.2055C35.46 33.9055 35.4772 34.4736 35.4353 34.9263C35.3502 35.7781 35.1275 36.206 35.0209 36.4482C35.0206 36.4483 35.0204 36.4484 35.0202 36.4485C34.185 36.767 33.2568 36.9937 32.3079 37.2736ZM36.7313 28.5137C36.9482 29.3184 37.1567 30.1519 37.3549 31.0173C37.5513 31.886 37.7945 32.7728 37.7145 33.6548C37.6715 34.1335 37.5168 34.61 37.1956 35.0183C36.89 35.4327 36.4357 35.7738 35.92 36.0455C35.7638 36.1298 35.6005 36.2083 35.4324 36.2802C35.4321 36.2804 35.4317 36.2805 35.4313 36.2806C35.5893 36.0101 35.7669 35.5969 35.8673 34.9628C35.942 34.4728 35.9478 33.8574 35.8463 33.1235C35.7986 32.7563 35.721 32.358 35.6378 31.9327C35.5543 31.5047 35.4656 31.0349 35.3362 30.524C35.2074 30.0132 35.0277 29.4672 34.7945 28.9004C34.6822 28.6263 34.5806 28.339 34.4631 28.028C34.3405 27.7204 34.218 27.3838 33.9652 27.0596C33.8473 26.8951 33.6725 26.7494 33.4792 26.6319C33.2776 26.5241 33.0509 26.4505 32.8244 26.4288C32.5975 26.4006 32.3736 26.4124 32.153 26.4372C31.9412 26.4622 31.7435 26.4941 31.5329 26.5232C30.6995 26.6448 29.8128 26.7863 28.8715 26.9593C26.812 27.3443 24.1605 27.9331 21.4604 28.9469C20.7848 29.1957 20.1112 29.4835 19.4429 29.787C18.7782 30.0952 18.0996 30.4361 17.504 30.9131C16.9106 31.3781 16.4169 32.0552 16.2707 32.7809C16.1791 33.141 16.1756 33.5019 16.1807 33.8527C16.2066 34.2012 16.2477 34.5436 16.3237 34.8704C16.4633 35.5281 16.6737 36.1406 16.8649 36.7274C17.0538 37.3077 17.2232 37.8958 17.4579 38.4254C17.6877 38.9576 17.9713 39.4435 18.3118 39.8451C18.6473 40.2489 19.0489 40.5623 19.4547 40.769C19.7619 40.927 20.0655 41.0309 20.3517 41.0942C20.184 41.116 20.0167 41.1299 19.848 41.139C19.1252 41.1723 18.3987 41.067 17.7767 40.7553C17.156 40.4484 16.6599 39.9371 16.2859 39.3487C15.9079 38.7562 15.6388 38.0981 15.3764 37.425C15.1089 36.7534 14.8409 36.0897 14.6051 35.4221C14.3674 34.7578 14.1638 34.0862 14.0174 33.4114C13.873 32.7335 13.76 32.0491 13.6742 31.3728C13.3694 28.9068 13.4142 26.5092 13.5529 24.3034C13.5576 24.31 13.5655 24.3182 13.5727 24.3241C13.9571 24.6776 14.4242 24.8941 14.8808 25.0161C15.8037 25.2549 16.6766 25.1837 17.446 25.1291C18.2166 25.0689 18.9313 24.9878 19.5877 24.897C20.4389 24.7794 21.1969 24.6464 21.8704 24.5087C21.8809 24.5452 21.8906 24.5793 21.903 24.6126C22.0231 24.9445 22.2131 25.2299 22.4561 25.458C22.6958 25.6844 23.0236 25.8407 23.3482 25.8505C23.9137 25.849 24.3012 25.614 24.6026 25.388C24.9065 25.1611 25.1119 24.8519 25.1964 24.5853C25.3363 24.1446 25.2742 23.8119 25.1874 23.5865C26.2736 23.1855 26.8212 22.9283 27.1058 22.7887C27.3985 22.6389 27.4053 22.5948 27.3915 22.5566C27.3752 22.5191 27.3398 22.4923 27.0225 22.5755C26.7069 22.6554 26.1117 22.863 24.9725 23.2239C24.9699 23.2247 24.9699 23.2247 24.9673 23.2254C24.9079 23.1634 24.8543 23.1313 24.8166 23.1158C24.7483 23.0906 24.7134 23.1137 24.6824 23.1411C24.6488 23.1692 24.6243 23.1999 24.6283 23.262C24.6306 23.2798 24.6336 23.3 24.6413 23.3268C24.6562 23.3884 24.6832 23.4729 24.7162 23.5978C24.7255 23.6399 24.7337 23.6877 24.7413 23.7434C24.7676 23.9124 24.7701 24.1436 24.6626 24.4169C24.5866 24.5967 24.4653 24.7738 24.2337 24.943C24.0148 25.1085 23.6913 25.2672 23.3875 25.262C23.2358 25.2555 23.0499 25.1876 22.8742 25.0298C22.6981 24.88 22.5379 24.6598 22.4378 24.4171C22.435 24.4074 22.4304 24.4008 22.4276 24.3911C22.3812 24.2779 22.3529 24.1595 22.3445 24.0434C22.3422 23.9966 22.3399 23.9498 22.3427 23.9016C22.3453 23.8139 22.3588 23.7256 22.3756 23.6392C22.4309 23.3677 22.5587 23.1071 22.7405 22.9574C22.9095 22.8115 23.1905 22.7757 23.4364 22.7816C23.6854 22.7893 23.9128 22.8374 24.0934 22.8962C24.4648 23.0111 24.6463 23.1699 24.6824 23.1411C24.7155 23.121 24.5781 22.8837 24.1965 22.6849C24.0073 22.5863 23.768 22.4968 23.4782 22.4534C23.3333 22.4318 23.1757 22.4242 23.0066 22.4437C22.8418 22.4593 22.6451 22.5184 22.485 22.6275C22.1585 22.8529 21.9797 23.1967 21.8807 23.5386C21.8383 23.6905 21.81 23.8435 21.8065 24.0053C21.1321 24.1301 20.3764 24.2519 19.525 24.3591C18.8774 24.442 18.1742 24.5145 17.4157 24.5686C16.6591 24.6196 15.8445 24.6713 15.057 24.4597C14.669 24.3549 14.3014 24.1757 14.0046 23.9051C13.8504 23.7543 13.7209 23.5832 13.6173 23.3863L13.6166 23.3839C13.5291 23.214 13.4618 23.0278 13.4181 22.8269C13.3946 22.7255 13.378 22.6196 13.3641 22.513C13.2726 21.7197 13.4502 20.8202 13.7777 19.9305C13.8581 19.7177 13.9481 19.4996 14.0491 19.2809C14.0484 19.2785 14.0484 19.2785 14.0503 19.2753C14.2109 18.9262 14.4005 18.5714 14.6185 18.219C14.7768 17.9682 14.9551 17.7194 15.1568 17.4745C15.1561 17.472 15.1586 17.4713 15.1586 17.4713C15.4074 17.1681 15.6826 16.8704 15.9859 16.5832C17.0376 15.5781 18.4061 14.7298 19.9321 14.1209C19.9787 14.0997 20.0286 14.0801 20.0784 14.0605C20.5669 13.8678 21.074 13.7013 21.5887 13.5616L21.6118 13.555C22.2214 13.3881 22.8455 13.2618 23.4751 13.1841C23.4797 13.1906 23.4811 13.1955 23.4851 13.1996C23.6163 13.1831 23.7552 13.1644 23.8999 13.1466L23.8978 13.1392C24.0238 13.1242 24.1487 13.1147 24.2743 13.1077C24.2769 13.107 24.2769 13.107 24.2801 13.1087C24.5602 13.0889 24.8438 13.0814 25.1225 13.0859C26.8433 13.0984 28.532 13.5601 29.8619 14.4252C30.5296 14.8477 31.0977 15.3778 31.5444 15.9586C31.9827 16.5391 32.2892 17.1917 32.3092 17.8421L32.3106 17.8469C32.3398 18.5 32.0362 19.0957 31.6683 19.5832C31.2953 20.0722 30.8585 20.4741 30.4408 20.8073C29.5906 21.4702 28.7919 21.8678 28.2478 22.1372C27.6996 22.4024 27.3853 22.5347 27.3915 22.5566C27.3943 22.5663 27.4771 22.5453 27.632 22.4955C27.7863 22.4434 28.0121 22.3602 28.2978 22.244C28.8653 22.0075 29.6891 21.6395 30.586 20.9845C31.0295 20.6544 31.4921 20.2556 31.9033 19.745C32.1048 19.4896 32.2945 19.2034 32.4326 18.8818C32.5093 18.7043 32.5697 18.5184 32.6054 18.3237C33.5761 19.9189 34.5051 21.8238 35.3318 24.0585C35.8362 25.4211 36.3008 26.9058 36.7313 28.5137Z" fill="black"/>
<path d="M32.3884 30.1598C32.3779 30.0795 32.3403 30.0111 31.6032 30.0708C31.2354 30.1048 30.6917 30.1678 29.8951 30.3125C29.0982 30.4539 28.0458 30.668 26.6734 31.0362C25.923 31.2429 24.961 31.5238 23.9571 31.8763C22.9525 32.2265 21.904 32.6383 20.9626 33.0497C19.0779 33.8724 17.636 34.7015 17.6725 34.7678C17.7129 34.8442 19.2171 34.1487 21.1236 33.4318C22.0766 33.073 23.1281 32.706 24.1297 32.3881C25.1307 32.0678 26.084 31.8064 26.8245 31.6025C28.1785 31.2392 29.2129 31.012 29.9946 30.8435C30.7758 30.6716 31.3067 30.5671 31.6634 30.4811C32.3782 30.3174 32.3989 30.2401 32.3884 30.1598Z" fill="black"/>
<path d="M33.9275 32.2085C33.8261 31.9946 33.699 31.8423 33.5832 31.7292C33.3486 31.5042 33.1639 31.4053 33.037 31.3439C33.0324 31.3418 33.0289 31.3407 33.0243 31.3387C33.0374 31.3223 33.0545 31.3085 33.066 31.2913C33.1969 31.0982 33.1991 30.8634 33.1379 30.7107C33.0775 30.5549 32.9804 30.457 32.8893 30.3909C32.7025 30.2598 32.5298 30.2536 32.4273 30.2718C32.3215 30.2921 32.2762 30.3364 32.259 30.3749C32.2419 30.4136 32.2506 30.4511 32.2596 30.4906C32.2756 30.5735 32.3123 30.6303 32.384 30.6869C32.418 30.7167 32.4655 30.7474 32.5136 30.8066C32.5368 30.8352 32.5579 30.8722 32.5651 30.9046C32.5696 30.9387 32.5674 30.9528 32.5496 30.9852C32.5317 31.0198 32.4428 31.0964 32.332 31.1172C32.2214 31.1358 32.1497 31.1287 32.0941 31.0394C32.0385 30.9469 32.0508 30.8042 32.0904 30.7151C32.1257 30.6196 32.1851 30.5604 32.168 30.5209C32.1567 30.4871 32.0483 30.4716 31.911 30.5681C31.7774 30.6601 31.6334 30.8722 31.6717 31.1493C31.6889 31.2855 31.7719 31.437 31.91 31.5312C32.0461 31.6287 32.2126 31.6625 32.3608 31.6581C32.3914 31.6572 32.4196 31.649 32.4494 31.6454L32.3763 31.7393L32.3763 31.7393C32.3382 31.7258 32.2379 31.845 32.1158 32.0658C32.0034 32.2854 31.8349 32.6241 31.9071 33.0706C31.9505 33.2861 32.0598 33.5026 32.2496 33.6708C32.4361 33.8408 32.723 33.9404 32.9991 33.9092C33.2801 33.8801 33.5201 33.7337 33.676 33.5685C33.8376 33.4036 33.9315 33.2182 33.9842 33.0486C34.0318 32.8936 34.0499 32.7383 34.0341 32.5899C34.0173 32.4355 33.9748 32.317 33.9275 32.2085Z" fill="black"/>
<path d="M32.7567 12.4705C33.0774 11.2703 32.9507 11.2158 32.7863 11.1796C32.6218 11.1434 32.4818 11.1391 32.1611 12.3393C31.9855 12.997 31.7417 14.4378 31.9062 14.474C32.0707 14.5102 32.581 13.1282 32.7567 12.4705Z" fill="black"/>
<path d="M33.2557 15.281C33.363 15.4041 34.2511 14.8579 34.6243 14.5569C35.3055 14.0076 35.2328 13.8963 35.1255 13.7733C35.0181 13.6502 34.9169 13.5619 34.2357 14.1113C33.8624 14.4122 33.1484 15.1579 33.2557 15.281Z" fill="black"/>
<path d="M35.944 16.8439C35.354 16.7922 34.0718 16.8127 34.0517 16.9745C34.0316 17.1363 35.2814 17.3783 35.8713 17.4299C36.9479 17.524 36.9866 17.3948 37.0067 17.233C37.0268 17.0712 37.0205 16.938 35.944 16.8439Z" fill="black"/>
<path d="M13.4729 39.9613C13.2763 39.4964 13.0073 38.7473 12.8496 38.0892C12.6841 37.434 12.6089 36.8796 12.5208 36.8828C12.4394 36.8845 12.3595 37.4571 12.4199 38.1643C12.4717 38.8714 12.69 39.6945 12.8998 40.1897C13.2809 41.0957 13.6097 41.4929 13.7876 41.6793C13.9767 41.8611 14.0458 41.8261 14.1169 41.7798C14.188 41.7336 14.2459 41.682 14.1575 41.451C14.0795 41.2147 13.8301 40.8108 13.4729 39.9613Z" fill="black"/>
<path d="M10.941 39.8086C10.7896 39.8861 11.2133 40.9648 11.4681 41.4382C11.9328 42.302 12.0653 42.2573 12.2167 42.1797C12.3681 42.1022 12.4811 42.0213 12.0164 41.1575C11.7617 40.6841 11.0924 39.7311 10.941 39.8086Z" fill="black"/>
</g>
<defs>
<clipPath id="clip0_117_17">
<rect width="36" height="36" fill="white" transform="translate(0.127205 10.7677) rotate(-16)"/>
</clipPath>
</defs>
</svg>
